<?xml version="1.0" encoding="utf-8"?>
<!-- Generator: Adobe Illustrator 24.1.0, SVG Export Plug-In . SVG Version: 6.00 Build 0)  -->
<svg version="1.1" id="레이어_1" xmlns="http://www.w3.org/2000/svg" xmlns:xlink="http://www.w3.org/1999/xlink" x="0px"
	 y="0px" viewBox="0 0 886.5 514.7" style="enable-background:new 0 0 886.5 514.7;" xml:space="preserve">
<style type="text/css">
	.st0{fill:#FCCB05;}
	.st1{fill:#FFFFFF;}
	.st2{enable-background:new    ;}
</style>
<g id="레이어_2_1_">
	<g id="레이어_1-2">
		<path d="M539.8,507.6v3.5h-193c-7.6,0-13.7-2.3-17.7-6.6c-0.4-0.3-0.7-0.6-1-1c-0.4-0.4-0.7-0.7-1-1s-0.7-0.7-1-1s-0.7-0.7-1-1
			s-0.7-0.7-1-1s-0.7-0.7-1-1s-0.7-0.7-1-1s-0.7-0.7-1-1s-0.7-0.7-1-1s-0.7-0.7-1-1s-0.7-0.7-1-1s-0.7-0.7-1-1s-0.7-0.7-1-1
			s-0.7-0.7-1-1s-0.7-0.7-1-1s-0.7-0.7-1-1c-0.4-0.3-0.7-0.6-1-1c-4.6-4.2-6.6-10.6-5.8-18.4l8.8-90.1c-0.7-0.1-1.4-0.5-1.9-1
			c-0.1-0.1-0.3-0.3-0.4-0.5c-0.2-0.2-0.5-0.3-0.6-0.5c-0.1-0.1-0.3-0.3-0.4-0.5c-0.2-0.2-0.5-0.3-0.6-0.5c-0.1-0.1-0.3-0.3-0.4-0.5
			c-0.2-0.2-0.5-0.3-0.6-0.5c-0.1-0.1-0.3-0.3-0.4-0.5c-0.2-0.2-0.5-0.3-0.6-0.5c-0.1-0.1-0.3-0.3-0.4-0.5c-0.2-0.2-0.5-0.3-0.6-0.5
			c-0.1-0.1-0.3-0.3-0.4-0.5c-0.2-0.2-0.5-0.3-0.6-0.5c-0.1-0.1-0.3-0.3-0.4-0.5c-0.2-0.2-0.5-0.3-0.6-0.5c-0.1-0.1-0.3-0.3-0.4-0.5
			c-0.2-0.2-0.5-0.3-0.6-0.5c-0.1-0.1-0.3-0.3-0.4-0.5c-0.2-0.2-0.5-0.3-0.6-0.5c-0.1-0.1-0.3-0.3-0.4-0.5c-0.2-0.2-0.5-0.3-0.6-0.5
			c-0.1-0.1-0.3-0.3-0.4-0.5c-0.2-0.2-0.5-0.3-0.6-0.5c-0.1-0.1-0.3-0.3-0.4-0.5c-0.2-0.2-0.5-0.3-0.6-0.5c-0.1-0.1-0.3-0.3-0.4-0.5
			c-0.2-0.2-0.5-0.3-0.6-0.5c-0.1-0.1-0.3-0.3-0.4-0.5c-0.2-0.2-0.5-0.3-0.6-0.5c-0.1-0.1-0.3-0.3-0.4-0.5c-0.2-0.2-0.5-0.3-0.6-0.5
			c-0.1-0.1-0.3-0.3-0.4-0.5c-0.2-0.2-0.5-0.3-0.6-0.5c-0.1-0.1-0.3-0.3-0.4-0.5c-0.2-0.2-0.5-0.3-0.6-0.5c-0.1-0.1-0.3-0.3-0.4-0.5
			c-0.2-0.2-0.5-0.3-0.6-0.5c-0.7-0.7-1-1.7-0.9-2.7l3.4-34.8h-1.5h-16.8l-2.2,22.1c-0.6,7.5-4.4,14.4-10.5,18.9
			c0.1,0.1,0.1,0.2,0.2,0.3c0.2,0.2,0.5,0.4,0.7,0.6c0.1,0.1,0.2,0.3,0.3,0.4c0.2,0.2,0.5,0.4,0.7,0.6c0.1,0.1,0.2,0.3,0.3,0.4
			c0.2,0.2,0.5,0.4,0.7,0.6c0.1,0.1,0.2,0.3,0.3,0.4c0.2,0.2,0.5,0.4,0.7,0.6c0.1,0.1,0.2,0.3,0.3,0.4c0.2,0.2,0.5,0.4,0.7,0.6
			c0.1,0.1,0.2,0.3,0.3,0.4c0.2,0.2,0.5,0.4,0.7,0.6c0.1,0.1,0.2,0.3,0.3,0.4c0.2,0.2,0.5,0.4,0.7,0.6c0.7,0.7,1,1.7,0.9,2.7
			l-11.2,114.8c-1.4,14.6-11.3,23.3-26.4,23.3l-193,0c-7.5,0-13.6-2.3-17.4-6.5c-0.3-0.2-0.6-0.6-1-1s-0.6-0.6-1-1s-0.6-0.6-1-1
			s-0.6-0.6-1-1s-0.6-0.6-1-1s-0.6-0.6-1-1s-0.6-0.6-1-1s-0.6-0.6-1-1s-0.6-0.6-1-1s-0.6-0.6-1-1s-0.6-0.6-1-1s-0.6-0.6-1-1
			s-0.6-0.6-1-1s-0.6-0.6-1-1s-0.6-0.6-1-1s-0.6-0.6-1-1s-0.6-0.6-1-1c-4.5-4.2-6.5-10.6-5.7-18.5l11.3-114.8
			c0.2-1.8,1.7-3.2,3.5-3.2h5.1l-0.3-0.3c-0.4-0.3-0.7-0.6-1-1c-0.4-0.3-0.7-0.6-1-1c-0.4-0.3-0.7-0.6-1-1c-0.4-0.3-0.7-0.6-1-1
			c-0.4-0.3-0.7-0.6-1-1c-0.4-0.3-0.7-0.6-1-1c-4-3.6-5.6-9.1-4.9-16.8l12.9-132c0.2-1.8,1.7-3.2,3.5-3.2h160.7c1,0,1.9,0.4,2.6,1.1
			c0.1,0.1,0.2,0.3,0.3,0.4c0.2,0.2,0.5,0.4,0.7,0.6c0.1,0.1,0.2,0.3,0.3,0.4c0.2,0.2,0.5,0.4,0.7,0.6c0.1,0.1,0.2,0.3,0.3,0.4
			c0.2,0.2,0.5,0.4,0.7,0.6c0.1,0.1,0.2,0.3,0.3,0.4c0.2,0.2,0.5,0.4,0.7,0.6c0.1,0.1,0.2,0.3,0.3,0.4c0.2,0.2,0.5,0.4,0.7,0.6
			c0.1,0.1,0.2,0.3,0.3,0.4c0.2,0.2,0.5,0.4,0.7,0.6l0.1,0.1l0.5-4.7c0.2-1.8,1.7-3.2,3.5-3.2h66.5c1,0,1.9,0.4,2.6,1.1
			c0.1,0.1,0.2,0.3,0.3,0.4c0.2,0.2,0.5,0.4,0.7,0.6c0.1,0.1,0.2,0.3,0.3,0.4c0.2,0.2,0.5,0.4,0.7,0.6c0.1,0.1,0.2,0.3,0.3,0.4
			c0.2,0.2,0.5,0.4,0.7,0.6c0.1,0.1,0.2,0.3,0.3,0.4c0.2,0.2,0.5,0.4,0.7,0.6c0.1,0.1,0.2,0.3,0.3,0.4c0.2,0.2,0.5,0.4,0.7,0.6
			c0.1,0.1,0.2,0.3,0.3,0.4c0.2,0.2,0.5,0.4,0.7,0.6c0.1,0.1,0.2,0.3,0.3,0.4c0.2,0.2,0.5,0.4,0.7,0.6c0.1,0.1,0.2,0.3,0.3,0.4
			c0.2,0.2,0.5,0.4,0.7,0.6c0.1,0.1,0.2,0.3,0.3,0.4c0.2,0.2,0.5,0.4,0.7,0.6c0.1,0.1,0.2,0.3,0.3,0.4c0.2,0.2,0.5,0.4,0.7,0.6
			c0.1,0.1,0.2,0.3,0.3,0.4c0.2,0.2,0.5,0.4,0.7,0.6c0.1,0.1,0.2,0.3,0.3,0.4c0.2,0.2,0.5,0.4,0.7,0.6c0.1,0.1,0.2,0.3,0.3,0.4
			c0.2,0.2,0.5,0.4,0.7,0.6c0.1,0.1,0.2,0.3,0.3,0.4c0.2,0.2,0.5,0.4,0.7,0.6c0.1,0.1,0.2,0.3,0.3,0.4c0.2,0.2,0.5,0.4,0.7,0.6
			c0.1,0.1,0.2,0.3,0.3,0.4c0.2,0.2,0.5,0.4,0.7,0.6c0.1,0.1,0.2,0.3,0.3,0.4c0.2,0.2,0.5,0.4,0.7,0.6c0.1,0.1,0.2,0.3,0.3,0.4
			c0.2,0.2,0.5,0.4,0.7,0.6c0.7,0.7,1,1.7,0.9,2.7l-2.7,28h19c1,0,1.9,0.4,2.6,1.1c0.1,0.1,0.2,0.3,0.3,0.4c0.2,0.2,0.5,0.4,0.7,0.6
			c0.1,0.1,0.2,0.3,0.3,0.4c0.2,0.2,0.5,0.4,0.7,0.6c0.1,0.1,0.2,0.3,0.3,0.4c0.2,0.2,0.5,0.4,0.7,0.6c0.1,0.1,0.2,0.3,0.3,0.4
			c0.2,0.2,0.5,0.4,0.7,0.6c0.1,0.1,0.2,0.3,0.3,0.4c0.2,0.2,0.5,0.4,0.7,0.6c0.1,0.1,0.2,0.3,0.3,0.4c0.2,0.2,0.5,0.4,0.7,0.6
			c0.1,0.1,0.2,0.3,0.3,0.4c0.2,0.2,0.5,0.4,0.7,0.6c0.1,0.1,0.2,0.3,0.3,0.4c0.2,0.2,0.5,0.4,0.7,0.6c0.1,0.1,0.2,0.3,0.3,0.4
			c0.2,0.2,0.5,0.4,0.7,0.6c0.1,0.1,0.2,0.3,0.3,0.4c0.2,0.2,0.5,0.4,0.7,0.6c0.1,0.1,0.2,0.3,0.3,0.4c0.2,0.2,0.5,0.4,0.7,0.6
			c0.1,0.1,0.2,0.3,0.3,0.4c0.2,0.2,0.5,0.4,0.7,0.6c0.1,0.1,0.2,0.3,0.3,0.4c0.2,0.2,0.5,0.4,0.7,0.6c0.1,0.1,0.2,0.3,0.3,0.4
			c0.2,0.2,0.5,0.4,0.7,0.6c0.1,0.1,0.2,0.3,0.3,0.4c0.2,0.2,0.5,0.4,0.7,0.6c0.1,0.1,0.2,0.3,0.3,0.4c0.2,0.2,0.5,0.4,0.7,0.6
			c0.1,0.1,0.2,0.3,0.3,0.4c0.2,0.2,0.5,0.4,0.7,0.6c0.1,0.1,0.2,0.3,0.3,0.4c0.2,0.2,0.5,0.4,0.7,0.6c0.7,0.7,1,1.7,0.9,2.7
			l-3,30.6c5.6-3,10.8-6.6,15.5-10.7c4.7-4,8.8-9.6,12.1-16.8h-5.9c-7.7,0-13.2-1.9-16.6-5.7c-0.4-0.3-0.7-0.6-1-1s-0.7-0.6-1-1
			s-0.7-0.6-1-1s-0.7-0.6-1-1s-0.7-0.6-1-1s-0.7-0.6-1-1s-0.7-0.6-1-1s-0.7-0.6-1-1s-0.7-0.6-1-1s-0.7-0.6-1-1s-0.7-0.6-1-1
			s-0.7-0.6-1-1s-0.7-0.6-1-1s-0.7-0.6-1-1s-0.7-0.6-1-1s-0.7-0.6-1-1s-0.7-0.6-1-1c-4-3.6-5.6-9.1-4.9-16.8l3.1-31.6
			c0.2-1.8,1.7-3.2,3.5-3.2h173.9c1.2,0,2.3,0.6,2.9,1.6c0.2,0.2,0.5,0.4,0.7,0.6c0.1,0.1,0.2,0.3,0.3,0.4c0.2,0.2,0.5,0.4,0.7,0.6
			c0.1,0.1,0.2,0.3,0.3,0.4c0.2,0.2,0.5,0.4,0.7,0.6c0.1,0.1,0.2,0.3,0.3,0.4c0.2,0.2,0.5,0.4,0.7,0.6c0.1,0.1,0.2,0.3,0.3,0.4
			c0.2,0.2,0.5,0.4,0.7,0.6c0.1,0.1,0.2,0.3,0.3,0.4c0.2,0.2,0.5,0.4,0.7,0.6c0.1,0.1,0.2,0.3,0.3,0.4c0.2,0.2,0.5,0.4,0.7,0.6
			c0.1,0.1,0.2,0.3,0.3,0.4c0.2,0.2,0.5,0.4,0.7,0.6c0.1,0.1,0.2,0.3,0.3,0.4c0.2,0.2,0.5,0.4,0.7,0.6c0.1,0.1,0.2,0.3,0.3,0.4
			l0.3,0.2l0.8-8.2c0.2-1.8,1.7-3.2,3.5-3.2h66.5c1.2,0,2.3,0.6,2.9,1.6c0.2,0.2,0.5,0.4,0.7,0.6c0.1,0.1,0.2,0.3,0.3,0.4
			c0.2,0.2,0.5,0.4,0.7,0.6c0.1,0.1,0.2,0.3,0.3,0.4c0.2,0.2,0.5,0.4,0.7,0.6c0.1,0.1,0.2,0.3,0.3,0.4c0.2,0.2,0.5,0.4,0.7,0.6
			c0.1,0.1,0.2,0.3,0.3,0.4c0.2,0.2,0.5,0.4,0.7,0.6c0.1,0.1,0.2,0.3,0.3,0.4c0.2,0.2,0.5,0.4,0.7,0.6c0.1,0.1,0.2,0.3,0.3,0.4
			c0.2,0.2,0.5,0.4,0.7,0.6c0.1,0.1,0.2,0.3,0.3,0.4c0.2,0.2,0.5,0.4,0.7,0.6c0.1,0.1,0.2,0.3,0.3,0.4c0.2,0.2,0.5,0.4,0.7,0.6
			c0.1,0.1,0.2,0.3,0.3,0.4c0.2,0.2,0.5,0.4,0.7,0.6c0.1,0.1,0.2,0.3,0.3,0.4c0.2,0.2,0.5,0.4,0.7,0.6c0.1,0.1,0.2,0.3,0.3,0.4
			c0.2,0.2,0.5,0.4,0.7,0.6c0.1,0.1,0.2,0.3,0.3,0.4c0.2,0.2,0.5,0.4,0.7,0.6c0.1,0.1,0.2,0.3,0.3,0.4c0.2,0.2,0.5,0.4,0.7,0.6
			c0.1,0.1,0.2,0.3,0.3,0.4c0.2,0.2,0.5,0.4,0.7,0.6c0.1,0.1,0.2,0.3,0.3,0.4c0.2,0.2,0.5,0.4,0.7,0.6c0.1,0.1,0.2,0.3,0.3,0.4
			c0.2,0.2,0.5,0.4,0.7,0.6c0.1,0.1,0.2,0.3,0.3,0.4c0.2,0.2,0.5,0.4,0.7,0.6c0.7,0.7,1,1.7,0.9,2.7l-13.7,139.6
			c-0.6,7.9-4.8,15.1-11.4,19.5c0.4,0.3,0.7,0.6,0.9,1c0.2,0.2,0.5,0.4,0.7,0.6c0.1,0.1,0.2,0.3,0.3,0.4c0.2,0.2,0.5,0.4,0.7,0.6
			c0.1,0.1,0.2,0.3,0.3,0.4c0.2,0.2,0.5,0.4,0.7,0.6c0.1,0.1,0.2,0.3,0.3,0.4c0.2,0.2,0.5,0.4,0.7,0.6c0.1,0.1,0.2,0.3,0.3,0.4
			c0.2,0.2,0.5,0.4,0.7,0.6c0.1,0.1,0.2,0.3,0.3,0.4c0.2,0.2,0.5,0.4,0.7,0.6c0.1,0.1,0.2,0.3,0.3,0.4c0.2,0.2,0.5,0.4,0.7,0.6
			c0.7,0.7,1,1.7,0.9,2.7l-10.2,104.5c-1.4,14.6-11.3,23.3-26.4,23.3V507.6z M181.6,368.4l0.4-4c-1.1,0.2-2.2,0.4-3.3,0.5
			c-10.1,1.6-20.2,2.4-30.4,2.6h-45.6c0.1,0.1,0.1,0.1,0.1,0.2c0.2,0.2,0.5,0.4,0.7,0.6l0.1,0.1L181.6,368.4z M429.5,361.4
			c-4.8-2.9-9.2-6.3-13.1-10.3l-0.7-0.7l-0.3-0.3l-0.7-0.7l-0.3-0.3l-0.7-0.7l-0.3-0.3l-0.7-0.7l-0.3-0.3l-0.7-0.7l-0.3-0.3
			l-0.7-0.7l-0.3-0.3l-0.7-0.7l-0.3-0.3l-0.7-0.7l-0.3-0.3l-0.3-0.2c-7.1,7.5-15.4,13.8-24.6,18.5L429.5,361.4z M460.2,295.2
			c0.8,0.5,1.6,0.9,2.4,1.3c-3.7-4.2-5.4-9.8-4.6-15.4l1.4-14h-4.7C455.1,279.1,457,288.5,460.2,295.2L460.2,295.2z M136.7,292.6
			c9.3-0.1,18.6-1,27.7-2.8c8.7-1.4,17.3-3.6,25.6-6.7l1.6-16.4c-2.5,0.5-5.1,0.8-7.7,0.7h-72l-2.5,25.2L136.7,292.6z"/>
		<path d="M203,195.8h65.5l-0.1,1h1.1l-0.1,1h1.1l-0.1,1h1.1l-0.1,1h1.1l-0.1,1h1.1l-0.1,1h1.1l-0.1,1h1.1l-0.1,1h1.1l-0.1,1h1.1
			l-0.1,1h1.1l-0.1,1h1.1l-0.1,1h1.1l-0.1,1h1.1l-0.1,1h1.1l-0.1,1h1.1l-0.1,1h1.1l-0.1,1h1.1l-0.1,1h1.1l-3.1,31.9h22.8l-0.1,1h1.1
			l-0.1,1h1.1l-0.1,1h1.1l-0.1,1h1.1l-0.1,1h1.1l-0.1,1h1.1l-0.1,1h1.1l-0.1,1h1.1l-0.1,1h1.1l-0.1,1h1.1l-0.1,1h1.1l-0.1,1h1.1
			l-0.1,1h1.1l-0.1,1h1.1l-0.1,1h1.1l-0.1,1h1.1l-0.1,1h1.1l-0.1,1h1.1l-3.6,36.5c0,0.1,0,0.2,0,0.3c8-3.4,15.4-8.1,21.9-13.9
			c6.2-5.2,11.2-12.9,15.2-22.9h-11.2c-6.6,0-11.3-1.5-14.1-4.6c-0.4-0.3-0.7-0.6-1-1c-0.4-0.3-0.7-0.6-1-1c-0.4-0.3-0.7-0.6-1-1
			c-0.4-0.3-0.7-0.6-1-1c-0.4-0.3-0.7-0.6-1-1c-0.4-0.3-0.7-0.6-1-1c-0.4-0.3-0.7-0.6-1-1c-0.4-0.3-0.7-0.6-1-1
			c-0.4-0.3-0.7-0.6-1-1c-0.4-0.3-0.7-0.6-1-1c-0.4-0.3-0.7-0.6-1-1c-0.4-0.3-0.7-0.6-1-1c-0.4-0.3-0.7-0.6-1-1
			c-0.4-0.3-0.7-0.6-1-1c-0.4-0.3-0.7-0.6-1-1c-0.4-0.3-0.7-0.6-1-1c-0.4-0.3-0.7-0.6-1-1c-3.2-2.8-4.5-7.3-3.9-13.9l3.1-31.6h1
			h172.9l-0.1,1h1.1l-0.1,1h1.1l-0.1,1h1.1l-0.1,1h1.1l-0.1,1h1.1l-0.1,1h1.1l-0.1,1h1.1l-0.1,1h1.1l-0.1,1h1.1l-0.1,1h1.1l-0.1,1
			h1.1l-0.1,1h1.1l-0.1,1h1.1l-0.1,1h1.1l-0.1,1h1l1.6-15.6h1h65.5l-0.1,1h1.1l-0.1,1h1.1l-0.1,1h1.1l-0.1,1h1.1l-0.1,1h1.1l-0.1,1
			h1.1l-0.1,1h1.1l-0.1,1h1.1l-0.1,1h1.1l-0.1,1h1.1l-0.1,1h1.1l-0.1,1h1.1l-0.1,1h1.1l-0.1,1h1.1l-0.1,1h1.1l-0.1,1h1.1l-0.1,1h1.1
			l-0.1,1h1.1l-13.7,139.4c-0.7,8.5-6.1,15.9-14,19.2v0.5h1.1l-0.1,1h1.1l-0.1,1h1.1l-0.1,1h1.1l-0.1,1h1.1l-0.1,1h1.1l-0.1,1h1.1
			l-0.1,1h1.1l-0.1,1h1.1l-0.1,1h1.1l-0.1,1h1.1l-10.2,104.5c-1.2,12.8-9.7,20.1-22.9,20.1h-1h-192c-6.8,0-11.9-2-15.2-5.6
			c-0.4-0.3-0.7-0.6-1-1c-0.4-0.3-0.7-0.6-1-1c-0.4-0.3-0.7-0.6-1-1c-0.4-0.3-0.7-0.6-1-1c-0.4-0.3-0.7-0.6-1-1
			c-0.4-0.3-0.7-0.6-1-1c-0.4-0.3-0.7-0.6-1-1c-0.4-0.3-0.7-0.6-1-1c-0.4-0.3-0.7-0.6-1-1c-0.4-0.3-0.7-0.6-1-1
			c-0.4-0.3-0.7-0.6-1-1c-0.4-0.3-0.7-0.6-1-1c-0.4-0.3-0.7-0.6-1-1c-0.4-0.3-0.7-0.6-1-1c-0.4-0.3-0.7-0.6-1-1
			c-0.4-0.3-0.7-0.6-1-1c-0.4-0.3-0.7-0.6-1-1c-3.8-3.4-5.5-8.7-4.8-15.6l9.2-94c-0.7,0-1.4,0.1-2.1,0.1l0,0h-1l0.1-1h-0.1l0,0h-1
			l0.1-1h-0.1l0,0h-1l0.1-1h-0.1l0,0h-1l0.1-1h-0.1l0,0h-1l0.1-1h-0.1l0,0h-1l0.1-1h-0.1l0,0h-1l0.1-1h-0.1l0,0h-1l0.1-1h-0.1l0,0
			h-1l0.1-1h-0.1l0,0h-1l0.1-1h-0.1l0,0h-1l0.1-1h-0.1l0,0h-1l0.1-1h-0.1l0,0h-1l0.1-1h-0.1l0,0h-1l0.1-1h-0.1l0,0h-1l0.1-1h-0.1
			l0,0h-1l0.1-1h-0.1l0,0h-1l0.1-1h-0.1l0,0h-1l0.1-1h-0.1l0,0h-1l3.8-38.9c-1.8,0.2-3.6,0.3-5.4,0.3h-20l-2.5,25.2
			c-0.6,8-5.5,15.1-12.8,18.6l-0.1,0.8h1.1l-0.1,1h1.1l-0.1,1h1.1l-0.1,1h1.1l-0.1,1h1.1l-0.1,1h1.1l-0.1,1h1.1l-0.1,1h1.1l-0.1,1
			h1.1l-0.1,1h1.1l-11.3,114.8c-1.2,12.8-9.7,20.1-22.9,20.1h-1l-192,0c-6.7,0-11.8-1.9-14.9-5.5c-0.4-0.3-0.7-0.6-1-1
			c-0.4-0.3-0.7-0.6-1-1c-0.4-0.3-0.7-0.6-1-1c-0.4-0.3-0.7-0.6-1-1c-0.4-0.3-0.7-0.6-1-1c-0.4-0.3-0.7-0.6-1-1
			c-0.4-0.3-0.7-0.6-1-1c-0.4-0.3-0.7-0.6-1-1c-0.4-0.3-0.7-0.6-1-1c-0.4-0.3-0.7-0.6-1-1c-0.4-0.3-0.7-0.6-1-1
			c-0.4-0.3-0.7-0.6-1-1c-0.4-0.3-0.7-0.6-1-1c-0.4-0.3-0.7-0.6-1-1c-0.4-0.3-0.7-0.6-1-1c-0.4-0.3-0.7-0.6-1-1
			c-0.4-0.3-0.7-0.6-1-1c-3.8-3.4-5.4-8.7-4.7-15.7l11.2-114.8h13.5c-0.1-0.1-0.1-0.2-0.2-0.3c-0.4-0.3-0.7-0.6-1-1
			c-0.4-0.3-0.7-0.6-1-1c-0.4-0.3-0.7-0.6-1-1c-0.4-0.3-0.7-0.6-1-1c-0.4-0.3-0.7-0.6-1-1c-0.4-0.3-0.7-0.6-1-1
			c-0.4-0.3-0.7-0.6-1-1c-0.4-0.3-0.7-0.6-1-1c-0.4-0.3-0.7-0.6-1-1c-0.4-0.3-0.7-0.6-1-1c-0.4-0.3-0.7-0.6-1-1
			c-0.4-0.3-0.7-0.6-1-1c-3.2-2.8-4.5-7.3-3.9-13.9l12.9-132h1h159.7l-0.1,1h1.1l-0.1,1h1.1l-0.1,1h1.1l-0.1,1h1.1l-0.1,1h1.1
			l-0.1,1h1.1l-0.1,1h1.1l-0.1,1h1.1l-0.1,1h1.1l-0.1,1h1.1l-0.1,1h1.1l-0.1,1h0.5l1.2-12.6H203 M183.9,264h-1h-74.2l-3.2,32.2h31.2
			c9.5-0.1,19-1,28.3-2.9c9.6-1.6,19.1-4.1,28.2-7.7l2.3-24C192.5,263.2,188.6,264,183.9,264 M475.5,304.6c-0.1-0.1-0.2-0.2-0.3-0.4
			c-0.4-0.3-0.7-0.6-1-1c-0.4-0.3-0.7-0.6-1-1c-0.4-0.3-0.7-0.6-1-1c-0.4-0.3-0.7-0.6-1-1c-0.4-0.3-0.7-0.6-1-1
			c-0.4-0.3-0.7-0.6-1-1c-0.4-0.3-0.7-0.6-1-1c-0.4-0.3-0.7-0.6-1-1c-0.4-0.3-0.7-0.6-1-1c-3.5-3.2-5.3-8-4.8-13.7l1.7-17.8H451
			c0.3,14.5,2.4,25.9,6.5,34C463,301.1,469.1,303.4,475.5,304.6 M492.9,319.1l0.2-1.9c-0.9-0.1-1.8-0.3-2.7-0.5v0.4
			c0.4,0,0.7,0.1,1.1,0.1l-0.1,0.9c0.4,0,0.7,0.1,1.1,0.1l-0.1,0.9L492.9,319.1 M444,364.9l-1.3-0.5c-9.9-4.4-17.9-9.6-23.9-15.7
			c-0.3-0.3-0.7-0.7-1-1s-0.7-0.7-1-1s-0.7-0.7-1-1s-0.7-0.7-1-1s-0.7-0.7-1-1s-0.7-0.7-1-1s-0.7-0.7-1-1s-0.7-0.7-1-1s-0.7-0.7-1-1
			s-0.7-0.7-1-1s-0.6-0.6-0.9-0.9c-9,10.9-22.1,19.8-39.4,26.6l-1.4,0.5L444,364.9 M186,360c-2.5,0.6-5.1,1.1-7.8,1.5
			c-9.9,1.5-19.9,2.4-29.9,2.5H93.8l-0.1,0.6h1.1l-0.1,1h1.1l-0.1,1h1.1l-0.1,1h1.1l-0.1,1h1.1l-0.1,1h1.1l-0.1,1h1.1l-0.1,1h1.1
			v0.3h82.9L186,360 M497.2,365l0.1-1h-1.1l0.1-1h-1.1l0.1-1h-1.1l0.1-1h-0.5l-0.4,4H497.2 M481.1,439.8l0.7-6.9h-82.5l-0.7,6.9
			L481.1,439.8 M203,188.8h-1c-2.7,0-5.2,1.6-6.3,4l-0.1-0.1c-0.2-0.3-0.5-0.5-0.8-0.7l-0.2-0.3c-1.3-1.5-3.2-2.3-5.2-2.3H29.7h-1
			c-3.6,0-6.6,2.7-7,6.3l-12.9,132c-0.8,8.6,1.1,15.2,5.9,19.6c0.3,0.3,0.6,0.6,0.9,0.9c-2.3,1-3.9,3.2-4.2,5.7L0.2,468.7
			c-1.1,11.2,3,17.7,6.7,21.3c0.3,0.3,0.6,0.7,1,1c0.4,0.3,0.6,0.6,1,1s0.6,0.6,1,1s0.6,0.6,1,1s0.6,0.6,1,1s0.6,0.6,1,1
			s0.6,0.6,1,1s0.6,0.6,1,1s0.6,0.6,1,1c0.4,0.4,0.6,0.6,1,1s0.6,0.6,1,1s0.6,0.6,1,1s0.6,0.6,1,1s0.6,0.6,1,1s0.6,0.6,1,1
			s0.6,0.6,1,1s0.6,0.6,1,1c3.2,3.5,9.3,7.6,19.9,7.6h192h1c16.9,0,28.3-10.1,29.9-26.5L278,373.3c0.2-2-0.5-3.9-1.8-5.4
			c-0.2-0.3-0.5-0.5-0.8-0.7c-0.1-0.1-0.1-0.2-0.2-0.3c-0.2-0.3-0.5-0.5-0.8-0.7c-0.1-0.1-0.1-0.2-0.2-0.3c-0.2-0.3-0.5-0.5-0.8-0.7
			c-0.1-0.1-0.1-0.2-0.2-0.3c-0.2-0.3-0.5-0.5-0.8-0.7c-0.1-0.1-0.1-0.2-0.2-0.3l-0.3-0.3c5.1-5,8.3-11.6,8.9-18.8l1.8-18.8h11.3
			l-3,30.9c-0.2,2,0.5,4,1.8,5.4c0.2,0.2,0.5,0.5,0.7,0.7c0.1,0.1,0.2,0.2,0.3,0.3c0.2,0.2,0.5,0.5,0.7,0.7c0.1,0.1,0.2,0.2,0.3,0.3
			c0.2,0.2,0.5,0.5,0.7,0.7c0.1,0.1,0.2,0.2,0.3,0.3c0.2,0.2,0.5,0.5,0.7,0.7c0.1,0.1,0.2,0.2,0.3,0.3c0.2,0.2,0.5,0.5,0.7,0.7
			c0.1,0.1,0.2,0.2,0.3,0.3c0.2,0.2,0.5,0.5,0.7,0.7c0.1,0.1,0.2,0.2,0.3,0.3c0.2,0.2,0.5,0.5,0.7,0.7c0.1,0.1,0.2,0.2,0.3,0.3
			c0.2,0.2,0.5,0.5,0.7,0.7c0.1,0.1,0.2,0.2,0.3,0.3c0.2,0.2,0.5,0.5,0.7,0.7c0.1,0.1,0.2,0.2,0.3,0.3c0.2,0.2,0.5,0.5,0.7,0.7
			c0.1,0.1,0.2,0.2,0.3,0.3c0.2,0.2,0.5,0.5,0.7,0.7c0.1,0.1,0.2,0.2,0.3,0.3c0.2,0.2,0.5,0.5,0.7,0.7c0.1,0.1,0.2,0.2,0.3,0.3
			c0.2,0.2,0.5,0.5,0.7,0.7c0.1,0.1,0.2,0.2,0.3,0.3c0.2,0.2,0.5,0.5,0.7,0.7c0.1,0.1,0.2,0.2,0.3,0.3c0.2,0.2,0.5,0.5,0.7,0.7
			c0.1,0.1,0.2,0.2,0.3,0.3c0.2,0.2,0.5,0.5,0.7,0.7c0.1,0.1,0.2,0.2,0.3,0.3c0.2,0.2,0.5,0.5,0.7,0.7c0.1,0.1,0.2,0.2,0.3,0.3
			c0.2,0.2,0.5,0.5,0.7,0.7c0.1,0.1,0.2,0.2,0.3,0.3c0.2,0.2,0.5,0.5,0.7,0.7l-8.6,87.8c-1.1,11.1,3,17.6,6.8,21.2
			c0.3,0.3,0.6,0.7,1,1s0.6,0.7,1,1s0.6,0.7,1,1s0.6,0.7,1,1s0.6,0.7,1,1s0.6,0.7,1,1s0.6,0.7,1,1s0.6,0.7,1,1s0.6,0.7,1,1
			s0.6,0.7,1,1s0.6,0.7,1,1s0.6,0.7,1,1s0.6,0.7,1,1s0.6,0.7,1,1s0.6,0.7,1,1s0.6,0.7,1,1s0.6,0.6,1,1c3.3,3.6,9.4,7.6,20.2,7.7h192
			h1c16.8,0,28.3-10.1,29.9-26.5l10.2-104.5c0.2-2-0.5-3.9-1.8-5.4c-0.2-0.3-0.5-0.5-0.8-0.7l-0.2-0.3c-0.2-0.3-0.5-0.5-0.8-0.7
			l-0.2-0.3c-0.2-0.3-0.5-0.5-0.8-0.7l-0.2-0.3c-0.2-0.3-0.5-0.5-0.8-0.7l-0.2-0.3c-0.2-0.3-0.5-0.5-0.8-0.7l-0.1-0.2
			c5.5-5,9-12,9.6-19.5l13.6-139.4c0.2-2-0.5-3.9-1.8-5.4c-0.2-0.3-0.5-0.5-0.8-0.7c-0.1-0.1-0.2-0.2-0.2-0.3
			c-0.2-0.3-0.5-0.5-0.8-0.7c-0.1-0.1-0.2-0.2-0.2-0.3c-0.2-0.3-0.5-0.5-0.8-0.7c-0.1-0.1-0.2-0.2-0.2-0.3c-0.2-0.3-0.5-0.5-0.8-0.7
			c-0.1-0.1-0.2-0.2-0.2-0.3c-0.2-0.3-0.5-0.5-0.8-0.7c-0.1-0.1-0.2-0.2-0.2-0.3c-0.2-0.3-0.5-0.5-0.8-0.7c-0.1-0.1-0.2-0.2-0.2-0.3
			c-0.2-0.3-0.5-0.5-0.8-0.7c-0.1-0.1-0.2-0.2-0.2-0.3c-0.2-0.3-0.5-0.5-0.8-0.7c-0.1-0.1-0.2-0.2-0.2-0.3c-0.2-0.3-0.5-0.5-0.8-0.7
			c-0.1-0.1-0.2-0.2-0.2-0.3c-0.2-0.3-0.5-0.5-0.8-0.7c-0.1-0.1-0.2-0.2-0.2-0.3c-0.2-0.3-0.5-0.5-0.8-0.7c-0.1-0.1-0.2-0.2-0.2-0.3
			c-0.2-0.3-0.5-0.5-0.8-0.7c-0.1-0.1-0.2-0.2-0.2-0.3c-0.2-0.3-0.5-0.5-0.8-0.7c-0.1-0.1-0.2-0.2-0.2-0.3c-0.2-0.3-0.5-0.5-0.8-0.7
			c-0.1-0.1-0.2-0.2-0.2-0.3c-0.2-0.3-0.5-0.5-0.8-0.7c-0.1-0.1-0.2-0.2-0.2-0.3c-0.2-0.3-0.5-0.5-0.8-0.7c-0.1-0.1-0.2-0.2-0.2-0.3
			c-0.2-0.3-0.5-0.5-0.8-0.7c-0.1-0.1-0.2-0.2-0.2-0.3c-0.2-0.3-0.5-0.5-0.8-0.7c-0.1-0.1-0.2-0.2-0.2-0.3c-1.3-1.5-3.2-2.3-5.2-2.3
			H506h-1c-3.6,0-6.6,2.7-7,6.3l-0.1,0.9l0,0l-0.2-0.3c-0.2-0.3-0.5-0.5-0.8-0.7l-0.2-0.3c-0.2-0.3-0.5-0.5-0.8-0.7l-0.2-0.3
			c-0.2-0.3-0.5-0.5-0.8-0.7l-0.2-0.3c-0.2-0.3-0.5-0.5-0.8-0.7l-0.2-0.3c-1.3-1.5-3.2-2.3-5.2-2.3H315.6h-1c-3.6,0-6.6,2.7-7,6.3
			l-3.1,31.6c-0.4,3.8-0.2,7.6,0.8,11.3h-14.2l2.4-24.2c0.2-2-0.5-3.9-1.8-5.4c-0.2-0.3-0.5-0.5-0.8-0.7l-0.2-0.3
			c-0.2-0.3-0.5-0.5-0.8-0.7l-0.2-0.3c-0.2-0.3-0.5-0.5-0.8-0.7l-0.2-0.3c-0.2-0.3-0.5-0.5-0.8-0.7l-0.2-0.3
			c-0.2-0.3-0.5-0.5-0.8-0.7l-0.2-0.3c-0.2-0.3-0.5-0.5-0.8-0.7l-0.2-0.3c-0.2-0.3-0.5-0.5-0.8-0.7l-0.2-0.3
			c-0.2-0.3-0.5-0.5-0.8-0.7l-0.2-0.3c-0.2-0.3-0.5-0.5-0.8-0.7l-0.2-0.3c-0.2-0.3-0.5-0.5-0.8-0.7l-0.2-0.3
			c-0.2-0.3-0.5-0.5-0.8-0.7l-0.2-0.3c-0.2-0.3-0.5-0.5-0.8-0.7l-0.2-0.3c-0.2-0.3-0.5-0.5-0.8-0.7l-0.2-0.3
			c-0.2-0.3-0.5-0.5-0.8-0.7l-0.2-0.3c-0.2-0.3-0.5-0.5-0.8-0.7l-0.2-0.3c-0.2-0.3-0.5-0.5-0.8-0.7l-0.2-0.3
			c-0.2-0.3-0.5-0.5-0.8-0.7l-0.2-0.3c-0.2-0.3-0.5-0.5-0.8-0.7l-0.2-0.3c-1.3-1.5-3.2-2.3-5.2-2.3L203,188.8z M328.8,288.1
			l2.1-21.1c3.9,2.5,9,3.7,15.5,3.7h0.2c-2.2,4-5.2,7.6-8.6,10.6h0C335.1,283.7,332,286,328.8,288.1L328.8,288.1z M183.8,271
			L183.8,271c1.3,0,2.6,0,3.8-0.1l-0.9,9.8c-7.4,2.6-15,4.6-22.8,5.8h-0.2c-8.9,1.7-17.9,2.7-27,2.8h-23.5l1.8-18.2h67.8L183.8,271
			L183.8,271z M396,358c4.3-3,8.4-6.3,12.1-10l0.8,0.8l0.2,0.2l0.8,0.8l0.2,0.2l0.8,0.8l0.2,0.2l0.8,0.8l0.2,0.2l0.8,0.8l0.2,0.2
			c0.3,0.3,0.5,0.5,0.8,0.8c1.5,1.5,3,2.9,4.6,4.2L396,358z"/>
		<path d="M784.3,511.2c-1,0-1.9-0.4-2.6-1.1c-0.1-0.1-0.2-0.3-0.3-0.4c-0.2-0.2-0.5-0.4-0.7-0.6c-0.1-0.1-0.2-0.3-0.3-0.4
			c-0.2-0.2-0.5-0.4-0.7-0.6c-0.1-0.1-0.2-0.3-0.3-0.4c-0.2-0.2-0.5-0.4-0.7-0.6c-0.1-0.1-0.2-0.3-0.3-0.4c-0.2-0.2-0.5-0.4-0.7-0.6
			c-0.1-0.1-0.2-0.3-0.3-0.4c-0.2-0.2-0.5-0.4-0.7-0.6c-0.1-0.1-0.2-0.3-0.3-0.4c-0.2-0.2-0.5-0.4-0.7-0.6c-0.1-0.1-0.2-0.3-0.3-0.4
			c-0.2-0.2-0.5-0.4-0.7-0.6c-0.1-0.1-0.2-0.3-0.3-0.4l-0.2-0.1c-26.9,7.1-43.6,7.7-61.1,7.7h-83.6c-8.3,0-14.7-2.3-18.9-6.9
			c-0.3-0.3-0.6-0.6-1-1c-0.4-0.3-0.7-0.6-1-1c-0.4-0.3-0.7-0.6-1-1c-0.4-0.3-0.7-0.6-1-1c-0.4-0.3-0.7-0.6-1-1
			c-0.4-0.3-0.7-0.6-1-1c-0.4-0.3-0.7-0.6-1-1c-0.4-0.3-0.7-0.6-1-1c-0.4-0.3-0.7-0.6-1-1c-0.4-0.3-0.7-0.6-1-1
			c-0.4-0.3-0.7-0.6-1-1c-0.4-0.3-0.7-0.6-1-1c-0.4-0.3-0.7-0.6-1-1c-0.4-0.3-0.7-0.6-1-1c-0.4-0.3-0.7-0.6-1-1
			c-0.4-0.3-0.7-0.6-1-1c-0.3-0.3-0.7-0.6-1-1c-4.8-4.5-6.9-11.3-6-20l26.1-270.1c0.2-1.8,1.7-3.2,3.5-3.2h66.5
			c1.2,0,2.3,0.6,2.9,1.6c0.2,0.2,0.5,0.4,0.7,0.6c0.1,0.1,0.2,0.3,0.3,0.4c0.2,0.2,0.5,0.4,0.7,0.6c0.1,0.1,0.2,0.3,0.3,0.4
			c0.2,0.2,0.5,0.4,0.7,0.6c0.1,0.1,0.2,0.3,0.3,0.4c0.2,0.2,0.5,0.4,0.7,0.6c0.1,0.1,0.2,0.3,0.3,0.4c0.2,0.2,0.5,0.4,0.7,0.6
			c0.1,0.1,0.2,0.3,0.3,0.4c0.2,0.2,0.5,0.4,0.7,0.6c0.1,0.1,0.2,0.3,0.3,0.4c0.2,0.2,0.5,0.4,0.7,0.6c0.1,0.1,0.2,0.3,0.3,0.4
			c0.2,0.2,0.5,0.4,0.7,0.6c0.1,0.1,0.2,0.3,0.3,0.4c0.2,0.2,0.5,0.4,0.7,0.6c0.1,0.1,0.2,0.3,0.3,0.4c0.2,0.2,0.5,0.4,0.7,0.6
			c0.1,0.1,0.2,0.3,0.3,0.4c0.2,0.2,0.5,0.4,0.7,0.6c0.1,0.1,0.2,0.3,0.3,0.4c0.2,0.2,0.5,0.4,0.7,0.6c0.1,0.1,0.2,0.3,0.3,0.4
			c0.2,0.2,0.5,0.4,0.7,0.6c0.1,0.1,0.2,0.3,0.3,0.4c0.2,0.2,0.5,0.4,0.7,0.6c0.1,0.1,0.2,0.3,0.3,0.4c0.2,0.2,0.5,0.4,0.7,0.6
			c0.1,0.1,0.2,0.3,0.3,0.4c0.2,0.2,0.5,0.4,0.7,0.6c0.1,0.1,0.2,0.3,0.3,0.4c0.2,0.2,0.5,0.4,0.7,0.6c0.1,0.1,0.2,0.3,0.3,0.4
			c0.2,0.2,0.5,0.4,0.7,0.6c0.7,0.7,1,1.7,0.9,2.7l-21.6,220.8h16.7c7.9,0,18.3-0.8,32.7-2.5c15.1-2.2,24.6-3.8,28-4.4
			c0.2,0,0.4-0.1,0.6-0.1c0.2,0,0.3,0,0.5,0c0.2,0,0.3,0,0.5,0c0.9,0,1.7,0.3,2.4,0.9c0.2,0.2,0.4,0.4,0.5,0.6
			c0.2,0.1,0.3,0.2,0.5,0.4c0.2,0.2,0.4,0.4,0.5,0.6c0.2,0.1,0.3,0.2,0.5,0.4c0.2,0.2,0.4,0.4,0.5,0.6c0.2,0.1,0.3,0.2,0.5,0.4
			c0.1,0.1,0.2,0.2,0.4,0.4l5.7-58.3h-37c-6.2,0-11.7-2.2-15.4-6.3c-0.4-0.3-0.7-0.7-1-1s-0.7-0.7-1-1s-0.7-0.7-1-1s-0.7-0.7-1-1
			s-0.7-0.7-1-1s-0.7-0.7-1-1s-0.7-0.7-1-1s-0.7-0.7-1-1s-0.7-0.7-1-1s-0.7-0.7-1-1s-0.7-0.7-1-1s-0.7-0.7-1-1s-0.7-0.7-1-1
			s-0.7-0.7-1-1s-0.7-0.7-1-1s-0.7-0.7-1-1s-0.7-0.7-1-1c-4.3-4-6.4-9.9-5.8-16.5l3.3-33.6c0.2-1.8,1.7-3.2,3.5-3.2h75.9l10-102.6
			c0.2-1.8,1.7-3.2,3.5-3.2h66.5c1,0,1.9,0.4,2.6,1.1c0.1,0.1,0.2,0.3,0.3,0.4c0.2,0.2,0.5,0.4,0.7,0.6c0.1,0.1,0.2,0.3,0.3,0.4
			c0.2,0.2,0.5,0.4,0.7,0.6c0.1,0.1,0.2,0.3,0.3,0.4c0.2,0.2,0.5,0.4,0.7,0.6c0.1,0.1,0.2,0.3,0.3,0.4c0.2,0.2,0.5,0.4,0.7,0.6
			c0.1,0.1,0.2,0.3,0.3,0.4c0.2,0.2,0.5,0.4,0.7,0.6c0.1,0.1,0.2,0.3,0.3,0.4c0.2,0.2,0.5,0.4,0.7,0.6c0.1,0.1,0.2,0.3,0.3,0.4
			c0.2,0.2,0.5,0.4,0.7,0.6c0.1,0.1,0.2,0.3,0.3,0.4c0.2,0.2,0.5,0.4,0.7,0.6c0.1,0.1,0.2,0.3,0.3,0.4c0.2,0.2,0.5,0.4,0.7,0.6
			c0.1,0.1,0.2,0.3,0.3,0.4c0.2,0.2,0.5,0.4,0.7,0.6c0.1,0.1,0.2,0.3,0.3,0.4c0.2,0.2,0.5,0.4,0.7,0.6c0.1,0.1,0.2,0.3,0.3,0.4
			c0.2,0.2,0.5,0.4,0.7,0.6c0.1,0.1,0.2,0.3,0.3,0.4c0.2,0.2,0.5,0.4,0.7,0.6c0.1,0.1,0.2,0.3,0.3,0.4c0.2,0.2,0.5,0.4,0.7,0.6
			c0.1,0.1,0.2,0.3,0.3,0.4c0.2,0.2,0.5,0.4,0.7,0.6c0.1,0.1,0.2,0.3,0.3,0.4c0.2,0.2,0.5,0.4,0.7,0.6c0.1,0.1,0.2,0.3,0.3,0.4
			c0.2,0.2,0.5,0.4,0.7,0.6c0.1,0.1,0.2,0.3,0.3,0.4c0.2,0.2,0.5,0.4,0.7,0.6c0.7,0.7,1,1.7,0.9,2.7l-24.6,252.3
			c-1.2,12.5-6.5,22.9-16.3,31.7s-20.6,13-33.2,13L784.3,511.2z"/>
		<path d="M796,195.9h65.5l-0.1,1h1.1l-0.1,1h1.1l-0.1,1h1.1l-0.1,1h1.1l-0.1,1h1.1l-0.1,1h1.1l-0.1,1h1.1l-0.1,1h1.1l-0.1,1h1.1
			l-0.1,1h1.1l-0.1,1h1.1l-0.1,1h1.1l-0.1,1h1.1l-0.1,1h1.1l-0.1,1h1.1l-0.1,1h1.1l-0.1,1h1.1l-0.1,1h1.1l-24.7,252.2
			c-1.2,11.8-6.3,21.4-15.1,29.4s-18.9,12.1-30.9,12.1h-24.6l0.1-1h-1.1l0.1-1h-1.1l0.1-1h-1.1l0.1-1h-1.1l0.1-1h-1.1l0.1-1h-1.1
			l0.1-1h-1.1l0.1-1h-1.1l0.1-1h-1.1v-0.1c-28.7,7.8-45.7,8.1-62.2,8.1h-1.3h-82.3c-7.4,0-13-2-16.4-5.9c-0.4-0.3-0.7-0.6-1-1
			c-0.4-0.3-0.7-0.6-1-1c-0.4-0.3-0.7-0.6-1-1c-0.4-0.3-0.7-0.6-1-1c-0.4-0.3-0.7-0.6-1-1c-0.4-0.3-0.7-0.6-1-1
			c-0.4-0.3-0.7-0.6-1-1c-0.4-0.3-0.7-0.6-1-1c-0.4-0.3-0.7-0.6-1-1c-0.4-0.3-0.7-0.6-1-1c-0.4-0.3-0.7-0.6-1-1
			c-0.4-0.3-0.7-0.6-1-1c-0.4-0.3-0.7-0.6-1-1c-0.4-0.3-0.7-0.6-1-1c-0.4-0.3-0.7-0.6-1-1c-0.4-0.3-0.7-0.6-1-1
			c-0.4-0.3-0.7-0.6-1-1c-4-3.7-5.8-9.5-5-17.2l26.1-270.1h1h65.5l-0.1,1h1.1l-0.1,1h1.1l-0.1,1h1.1l-0.1,1h1.1l-0.1,1h1.1l-0.1,1
			h1.1l-0.1,1h1.1l-0.1,1h1.1l-0.1,1h1.1l-0.1,1h1.1l-0.1,1h1.1l-0.1,1h1.1l-0.1,1h1.1l-0.1,1h1.1l-0.1,1h1.1l-0.1,1h1.1l-0.1,1h1.1
			l-0.1,1h1.1l-22,224.6h20.6c8.7,0,19.8-1,33.1-2.5c13.4-1.9,22.9-3.5,28.2-4.5v0.2l1-0.2l-0.1,1h0.1v0.2l1-0.2l-0.1,1h0.1v0.2
			l1-0.2l-0.1,1h0.1v0.2l1-0.2l-0.1,1h0.1v0.2l1-0.2l-0.1,1h0.1v0.2l1-0.2l-0.1,1h0.1v0.2l1-0.2l-0.1,1h0.1v0.2l1-0.2l-0.1,1h0.1
			v0.2l1-0.2l-0.1,1h0.1v0.2l0.5-0.1l6.8-70.1H737c-5.5,0-9.9-1.9-12.9-5.2c-0.4-0.3-0.7-0.6-1-1c-0.4-0.3-0.7-0.6-1-1
			c-0.4-0.3-0.7-0.6-1-1c-0.4-0.3-0.7-0.6-1-1c-0.4-0.3-0.7-0.6-1-1c-0.4-0.3-0.7-0.6-1-1c-0.4-0.3-0.7-0.6-1-1
			c-0.4-0.3-0.7-0.6-1-1c-0.4-0.3-0.7-0.6-1-1c-0.4-0.3-0.7-0.6-1-1c-0.4-0.3-0.7-0.6-1-1c-0.4-0.3-0.7-0.6-1-1
			c-0.4-0.3-0.7-0.6-1-1c-0.4-0.3-0.7-0.6-1-1c-0.4-0.3-0.7-0.6-1-1c-0.4-0.3-0.7-0.6-1-1c-0.4-0.3-0.7-0.6-1-1
			c-3.5-3.2-5.3-8-4.8-13.7l3.3-33.6h1h78L795,195.9H796 M796,188.9h-1c-3.6,0-6.6,2.7-7,6.3l-9.7,99.5h-71.7h-1
			c-1.9,0-3.7,0.7-5,2.1l8-81.6c0.2-2-0.5-3.9-1.8-5.4c-0.2-0.3-0.5-0.5-0.8-0.7l-0.2-0.3c-0.2-0.3-0.5-0.5-0.8-0.7l-0.2-0.3
			c-0.2-0.3-0.5-0.5-0.8-0.7l-0.2-0.3c-0.2-0.3-0.5-0.5-0.8-0.7l-0.2-0.3c-0.2-0.3-0.5-0.5-0.8-0.7l-0.2-0.3
			c-0.2-0.3-0.5-0.5-0.8-0.7l-0.2-0.3c-0.2-0.3-0.5-0.5-0.8-0.7l-0.2-0.3c-0.2-0.3-0.5-0.5-0.8-0.7l-0.2-0.3
			c-0.2-0.3-0.5-0.5-0.8-0.7l-0.2-0.3c-0.2-0.3-0.5-0.5-0.8-0.7l-0.2-0.3c-0.2-0.3-0.5-0.5-0.8-0.7l-0.2-0.3
			c-0.2-0.3-0.5-0.5-0.8-0.7l-0.2-0.3c-0.2-0.3-0.5-0.5-0.8-0.7l-0.2-0.3c-0.2-0.3-0.5-0.5-0.8-0.7l-0.2-0.3
			c-0.2-0.3-0.5-0.5-0.8-0.7l-0.2-0.3c-0.2-0.3-0.5-0.5-0.8-0.7l-0.2-0.3c-0.2-0.3-0.5-0.5-0.8-0.7l-0.2-0.3
			c-0.2-0.3-0.5-0.5-0.8-0.7l-0.2-0.3c-1.3-1.5-3.2-2.3-5.2-2.3h-65.5h-1c-3.6,0-6.7,2.7-7,6.3l-26,270.1c-1.2,12.1,3.1,19,7,22.8
			c0.4,0.4,0.7,0.7,1,1s0.7,0.7,1,1s0.7,0.7,1,1s0.7,0.7,1,1s0.7,0.7,1,1s0.7,0.7,1,1s0.7,0.7,1,1s0.7,0.7,1,1s0.7,0.7,1,1
			s0.7,0.7,1,1s0.7,0.7,1,1s0.7,0.7,1,1s0.7,0.7,1,1s0.7,0.7,1,1s0.7,0.7,1,1s0.7,0.7,1,1s0.7,0.7,1,1c4.9,5.3,12.1,8,21.4,8h82.3
			h1.3c17.3,0,33.8-0.6,60-7.3c0.2,0.3,0.5,0.5,0.8,0.7l0.2,0.3c0.2,0.3,0.5,0.5,0.8,0.7l0.2,0.3c0.2,0.3,0.5,0.5,0.8,0.7l0.2,0.3
			c0.2,0.3,0.5,0.5,0.8,0.7l0.2,0.3c0.2,0.3,0.5,0.5,0.8,0.7l0.2,0.3c0.2,0.3,0.5,0.5,0.8,0.7l0.2,0.3c1.3,1.5,3.2,2.3,5.2,2.3h24.5
			c13.4,0,25.3-4.7,35.6-13.9s16.1-20.7,17.4-33.9l24.7-252.2c0.2-2-0.5-3.9-1.8-5.4c-0.2-0.3-0.5-0.5-0.8-0.7
			c-0.1-0.1-0.2-0.2-0.2-0.3c-0.2-0.3-0.5-0.5-0.8-0.7c-0.1-0.1-0.2-0.2-0.2-0.3c-0.2-0.3-0.5-0.5-0.8-0.7c-0.1-0.1-0.2-0.2-0.2-0.3
			c-0.2-0.3-0.5-0.5-0.8-0.7c-0.1-0.1-0.2-0.2-0.2-0.3c-0.2-0.3-0.5-0.5-0.8-0.7c-0.1-0.1-0.2-0.2-0.2-0.3c-0.2-0.3-0.5-0.5-0.8-0.7
			c-0.1-0.1-0.2-0.2-0.2-0.3c-0.2-0.3-0.5-0.5-0.8-0.7c-0.1-0.1-0.2-0.2-0.2-0.3c-0.2-0.3-0.5-0.5-0.8-0.7c-0.1-0.1-0.2-0.2-0.2-0.3
			c-0.2-0.3-0.5-0.5-0.8-0.7c-0.1-0.1-0.2-0.2-0.2-0.3c-0.2-0.3-0.5-0.5-0.8-0.7c-0.1-0.1-0.2-0.2-0.2-0.3c-0.2-0.3-0.5-0.5-0.8-0.7
			c-0.1-0.1-0.2-0.2-0.2-0.3c-0.2-0.3-0.5-0.5-0.8-0.7c-0.1-0.1-0.2-0.2-0.2-0.3c-0.2-0.3-0.5-0.5-0.8-0.7c-0.1-0.1-0.2-0.2-0.2-0.3
			c-0.2-0.3-0.5-0.5-0.8-0.7c-0.1-0.1-0.2-0.2-0.2-0.3c-0.2-0.3-0.5-0.5-0.8-0.7c-0.1-0.1-0.2-0.2-0.2-0.3c-0.2-0.3-0.5-0.5-0.8-0.7
			c-0.1-0.1-0.2-0.2-0.2-0.3c-0.2-0.3-0.5-0.5-0.8-0.7c-0.1-0.1-0.2-0.2-0.2-0.3c-0.2-0.3-0.5-0.5-0.8-0.7c-0.1-0.1-0.2-0.2-0.2-0.3
			c-1.3-1.5-3.2-2.3-5.2-2.3L796,188.9L796,188.9z M687.4,432.2l8.7-88.4c1,3.9,3.1,7.4,6,10.1c0.3,0.3,0.6,0.7,1,1s0.6,0.7,1,1
			s0.6,0.7,1,1s0.6,0.7,1,1s0.6,0.7,1,1s0.6,0.7,1,1s0.6,0.7,1,1s0.6,0.7,1,1s0.6,0.7,1,1s0.6,0.7,1,1s0.6,0.7,1,1s0.6,0.7,1,1
			s0.6,0.7,1,1s0.6,0.7,1,1s0.6,0.7,1,1s0.6,0.7,1,1s0.6,0.7,1,1c4.4,4.7,10.7,7.3,17.9,7.3h33.2l-4.7,47.6
			c-0.9-0.4-1.9-0.6-2.9-0.6h-0.5h-0.5c-0.4,0-0.8,0-1.3,0.1c-3.3,0.6-12.8,2.3-27.8,4.4c-14.3,1.7-24.5,2.5-32.2,2.5L687.4,432.2z"
			/>
		<path class="st0" d="M25.8,492c-7.6,0-13.6-2.3-17.5-6.5S3,475.3,3.7,468l11.2-114.7c0.2-1.8,1.7-3.2,3.5-3.2h65.5
			c1.9,0,3.5,1.6,3.5,3.5c0,0.1,0,0.3,0,0.4L86,367.4h95.6l1.4-14.1c0.2-1.6,1.3-2.8,2.9-3.1c-0.5-0.2-1-0.5-1.3-0.9
			c-0.7-0.7-1-1.7-0.9-2.7l0.7-7.4c-7.9,3.2-16.2,5.5-24.7,6.7c-10.1,1.6-20.2,2.4-30.4,2.6H32.8c-7.7,0-13.2-1.8-16.6-5.6
			s-4.6-8.8-3.9-15.8L25.2,195c0.2-1.8,1.7-3.2,3.5-3.2h159.7c1.9,0,3.5,1.6,3.5,3.5c0,0.1,0,0.2,0,0.3l-3.1,32
			c-1.4,13.9-9.2,20.7-23.9,20.7h-72l-4.2,43.2h48.1c9.3-0.1,18.6-1,27.7-2.8c8.7-1.4,17.3-3.6,25.6-6.7l8.6-87.7
			c0.2-1.8,1.7-3.2,3.5-3.2h65.5c1.9,0,3.5,1.6,3.5,3.5c0,0.1,0,0.2,0,0.3l-4.5,46h38.7c1.9,0,3.5,1.6,3.5,3.5c0,0.1,0,0.2,0,0.3
			l-3.6,36.5c-1,10-6.6,22-27.9,22h-16.9l-2.2,22.1c-1.3,13.4-11.4,22.9-25.6,24.6H252c1.9,0,3.5,1.6,3.5,3.5c0,0.1,0,0.2,0,0.3
			l-11.2,114.8c-1.4,14.6-11.3,23.3-26.4,23.3L25.8,492z M175,435.2l1.1-10.9H80.5l-1.1,10.9L175,435.2z"/>
		<path d="M202,194.8h65.5l-4.9,49.9h42.6l-3.6,36.4c-1.3,13.1-10.2,18.9-24.4,18.9h-20l-2.5,25.2c-1.3,13.1-11.8,21.7-27,21.7
			h-40.6l1.3-13.4c-9.2,4.5-19.1,7.5-29.3,8.9c-9.9,1.5-19.9,2.4-29.9,2.5l0,0H32.8c-12.6,0-18.2-5.1-17-17.6l12.9-132h159.7
			l-3.1,32c-1.2,12.5-7.8,17.6-20.4,17.6l0,0H89.7l-4.9,50.2h52c9.5-0.1,19-1,28.3-2.9c9.6-1.6,19.1-4.1,28.2-7.7L202,194.8
			 M18.4,353.6h65.5l-1.7,17.3h102.6l1.7-17.3H252l-11.2,114.8c-1.2,12.8-9.7,20.1-22.9,20.1l0,0l-192,0c-13.2,0-19.9-7.4-18.7-20.1
			L18.4,353.6 M178.2,438.7l1.8-17.9H77.3l-1.8,17.9H178.2 M202,187.8c-3.4,0-6.3,2.4-6.9,5.7c-0.9-3-3.6-5.1-6.7-5.1H28.7l0,0
			c-3.6,0-6.6,2.7-7,6.3l-12.9,132c-0.8,8,0.8,14.1,4.8,18.5c0.6,0.7,1.3,1.4,2.1,2c-2.4,1-4,3.2-4.2,5.8L0.2,467.7
			c-1,10.4,2.5,16.7,5.6,20.2s9.2,7.7,20,7.7l192,0c16.9,0,28.3-10.1,29.9-26.5l11.2-114.8c0.4-3.8-2.4-7.3-6.3-7.6
			c-0.2,0-0.5,0-0.7,0h-1.4c6.4-5.1,10.5-12.6,11.1-20.8l1.9-18.9h13.7c8.8,0,15.9-2,21.2-5.9c5.9-4.4,9.4-10.9,10.2-19.3l3.6-36.4
			c0.4-3.8-2.4-7.3-6.3-7.7c-0.2,0-0.5,0-0.7,0h-34.8l4.1-42.2c0.4-3.8-2.4-7.3-6.3-7.7c-0.2,0-0.5,0-0.7,0L202,187.8z M164.8,252
			c8.2,0,14.4-1.9,19-5.8c3.6-3.1,6.1-7.3,7.3-11.9l-4.4,45.3c-7.4,2.6-15,4.6-22.8,5.8h-0.2c-8.9,1.7-17.9,2.7-27,2.8H92.5
			l3.5-36.2L164.8,252L164.8,252z M129.2,352c10.4-0.2,20.7-1,30.9-2.6c6.9-1,13.6-2.7,20.2-4.9l-0.2,1.8c-0.1,1.2,0.1,2.4,0.5,3.4
			c-0.7,1-1.1,2.1-1.2,3.3l-1.1,11H89.9l0.9-9.6c0.1-0.8,0-1.6-0.2-2.3L129.2,352z M83.2,431.6l0.4-3.9h88.5l-0.4,3.9L83.2,431.6
			L83.2,431.6z"/>
		<path class="st1" d="M328.8,492.1c-7.6,0-13.8-2.3-17.7-6.6c-3.8-4.2-5.5-10.2-4.8-17.3l10.2-104.5c0.2-1.8,1.7-3.2,3.5-3.2
			l233.9,0.1c1.9,0,3.5,1.6,3.5,3.5c0,0.1,0,0.2,0,0.3l-10.2,104.5c-1.4,14.6-11.3,23.3-26.4,23.3L328.8,492.1z M477.9,435.2
			l1.8-17.9h-96.2l-1.8,17.9L477.9,435.2z M473.3,360.1c-16.8-0.3-33.2-4.1-49.9-11.5c-15.2-6.7-26.2-15.5-32.8-26.3
			c-9.4,10.8-22.7,19.7-39.7,26.3c-18.5,7.2-36.3,11.1-53,11.4h-0.1c-1,0-1.9-0.4-2.6-1.1c-0.7-0.7-1-1.7-0.9-2.7l5.1-52.4
			c0.2-1.6,1.4-2.9,3.1-3.1c13.1-1.5,25.8-7.5,37.7-17.7c8.2-6.9,14.3-18.5,18.3-34.8h-30.1c-7.7,0-13.2-1.8-16.6-5.6
			s-4.6-8.8-3.9-15.8l3.1-31.6c0.2-1.8,1.7-3.2,3.5-3.2h172.9c1.9,0,3.5,1.6,3.5,3.5c0,0.1,0,0.2,0,0.3l-3.1,31.6
			c-1,10.5-5.7,16.9-14.3,19.5h22.8l5.1-52.5c0.2-1.8,1.7-3.2,3.5-3.2h65.5c1.9,0,3.5,1.5,3.6,3.4c0,0.2,0,0.3,0,0.5l-13.7,139.4
			c-1.5,14.9-13.7,24.9-30.5,24.9h-40.7c-1.9,0-3.5-1.6-3.5-3.5c0-0.1,0-0.2,0-0.3l5.2-53.7h-9.8c0.6,0.7,0.9,1.7,0.8,2.6l-5.1,52.4
			C476.6,358.7,475.1,360.1,473.3,360.1L473.3,360.1z M435.6,248.2c0.7,16.9,4,28.4,10.1,35.1c4.9,5.6,11,10.1,17.7,13.2
			c-0.3-0.3-0.6-0.6-0.9-0.9c-3.7-4.2-5.4-9.9-4.7-15.4l2.9-30.1c0.1-0.7,0.3-1.4,0.8-1.9L435.6,248.2z"/>
		<path d="M505,194.8h65.5l-13.7,139.4c-1.3,13.1-11.8,21.7-27,21.7h-40.6l5.6-57.5h-16.8c-10.6,0-17.7-7.4-16.6-17.9l2.9-30h35.2
			L505,194.8 M314.6,195.4h172.9l-3.1,31.6c-1.2,12.5-7.9,17.6-20.4,17.6h-32c0.4,19.2,3.9,32.9,11.2,40.9
			c9.9,10.9,21.6,17,35.3,18.5l-5.1,52.4c-15.8-0.3-31.9-3.8-48.6-11.2s-28-17.3-33.6-29.4c-8.9,12.1-22.8,22.1-41.6,29.4
			s-35.9,10.9-51.8,11.2l5.2-52.4c13.7-1.6,26.9-7.7,39.6-18.5c9.5-8,16.3-21.7,20.5-40.9h-34.6c-12.6,0-18.2-5.1-17-17.6
			L314.6,195.4 M320,363.9l233.9,0.1l-10.2,104.5c-1.2,12.8-9.7,20.1-22.9,20.1l0,0h-192c-13.2,0-20.2-7.4-19-20.1L320,363.9
			 M481.1,438.8l2.4-24.9H380.3l-2.4,24.9L481.1,438.8 M505,187.8c-3.6,0-6.6,2.7-7,6.3l-4.8,49.3h-7.8c3.3-3.9,5.3-9.1,5.9-15.6
			l3.1-31.6c0.4-3.8-2.4-7.3-6.3-7.6c-0.2,0-0.5,0-0.7,0H314.5l0,0c-3.6,0-6.6,2.7-7,6.3l-3.1,31.6c-0.8,8,0.8,14.1,4.8,18.5
			s10.4,6.8,19.2,6.8H354c-3.8,13.2-9.2,22.8-16,28.6h0c-11.6,9.9-23.3,15.4-35.8,16.9c-3.3,0.4-5.8,3-6.2,6.3l-5.1,52.4
			c-0.4,3.8,2.4,7.3,6.3,7.6c0.2,0,0.5,0,0.7,0h0.1c5.1-0.1,10.2-0.5,15.2-1.2c-0.1,0.3-0.1,0.6-0.1,0.9l-10.3,104.5
			c-1,10.3,2.5,16.6,5.6,20s9.4,7.8,20.3,7.8h192c16.8,0,28.3-10.1,29.9-26.5l10.2-104.5c0.4-3.8-2.4-7.3-6.3-7.6
			c-0.2,0-0.5,0-0.7,0h-3c7.4-5,12.2-13.1,12.9-22l13.6-139.4c0.4-3.8-2.4-7.3-6.3-7.6c-0.2,0-0.5,0-0.7,0L505,187.8L505,187.8z
			 M454.7,286.9c-2.3-1.8-4.4-3.8-6.4-6c-5-5.5-8-15.3-9-29.2h17.9l-2.8,28.1C454.2,282.2,454.3,284.6,454.7,286.9L454.7,286.9z
			 M480.3,356.9l5-51.5h1.7l-4.9,49.9c-0.1,0.6-0.1,1.1,0,1.7L480.3,356.9z M337.7,356.9c4.8-1.4,9.6-3.1,14.5-5
			c15.8-6.2,28.5-14.2,38-23.9c7,9.6,17.7,17.6,31.8,23.8c4.4,2,8.9,3.7,13.4,5.1L337.7,356.9L337.7,356.9z M385.6,431.8l1.1-10.9
			h89.2l-1.1,10.9H385.6z"/>
		<path class="st1" d="M766.3,492.2c-1.9,0-3.5-1.6-3.5-3.5c0-0.1,0-0.2,0-0.3l13-132.7H719c-6.3,0-11.8-2.2-15.5-6.3
			c-3.7-4.2-5.4-9.9-4.7-15.4l3.3-33.6c0.2-1.8,1.7-3.2,3.5-3.2h75.9l10-102.6c0.2-1.8,1.7-3.2,3.5-3.2h65.5c1,0,1.9,0.4,2.6,1.1
			c0.7,0.7,1,1.7,0.9,2.7l-24.7,252.2c-1.2,12.5-6.5,22.9-16.3,31.7s-20.6,13-33.2,13L766.3,492.2z M611.5,491.2
			c-8.4,0-14.7-2.3-18.9-6.9s-5.8-10.9-5-19l26.1-270.1c0.2-1.8,1.7-3.2,3.5-3.2h65.5c1.9,0,3.5,1.6,3.5,3.5c0,0.1,0,0.2,0,0.3
			l-23.4,238.8h37.4c7.9,0,18.3-0.8,32.8-2.5c15.1-2.2,24.6-3.8,28-4.4c0.2,0,0.4-0.1,0.6-0.1c1.9,0,3.5,1.6,3.5,3.5
			c0,0.1,0,0.2,0,0.3l-4.7,48.3c-0.2,1.4-1.2,2.6-2.6,3c-28.5,7.8-45.7,8.4-63.7,8.4L611.5,491.2z"/>
		<path d="M795,194.9h65.5l-24.7,252.2c-1.2,11.8-6.3,21.4-15.1,29.4s-18.9,12.1-30.9,12.1h-23.6l13.4-136.5H719
			c-10.7,0-17.7-7.4-16.6-17.9l3.3-33.6h79L795,194.9 M617.2,195.5h65.5l-23.7,242.7h41.3c8.7,0,19.8-1,33.1-2.5
			c13.4-1.9,22.9-3.5,28.2-4.5l-4.7,48.3c-29,7.9-46.1,8.3-62.8,8.3h-0.3h-82.3c-14.5,0-21.8-7.7-20.4-22.1L617.2,195.5
			 M761.6,431.1L761.6,431.1 M795,187.9c-3.6,0-6.6,2.7-7,6.3l-9.7,99.5h-72.7l0,0c-3.6,0-6.6,2.7-7,6.3l-3.3,33.6
			c-0.8,6.6,1.2,13.1,5.6,18.1c4.4,4.8,10.8,7.5,18,7.5h52.9l-6.5,66.1c-1.1-0.7-2.4-1.1-3.8-1.2h-0.4c-0.4,0-0.8,0.1-1.1,0.1
			c-3.5,0.6-12.8,2.3-27.7,4.4c-14.3,1.7-24.5,2.5-32.2,2.5h-33.5l23-234.9c0.4-3.8-2.4-7.3-6.3-7.6c-0.2,0-0.5,0-0.7,0h-65.5l0,0
			c-3.6,0-6.7,2.7-7,6.3l-26,270.1c-0.9,9.1,1.1,16.4,5.9,21.6s12.1,8.1,21.5,8.1h82.3h0.3c18.3,0,35.8-0.6,64.6-8.5
			c0.3-0.1,0.5-0.2,0.8-0.3l-0.2,2.1c-0.4,3.8,2.4,7.3,6.3,7.6c0.2,0,0.5,0,0.7,0h23.5c13.4,0,25.3-4.7,35.6-13.9
			s16.1-20.7,17.4-33.9l24.7-252.2c0.4-3.8-2.4-7.3-6.3-7.6c-0.2,0-0.5,0-0.7,0L795,187.9L795,187.9z"/>
		<g class="st2">
			<path d="M60.4,63.1H36V36.8h26.6v5.7H42.5v15h19.6c4.9,0,8.3-0.7,10.6-2.4v-19h6.5v11.6h7.9v5.7h-7.9v11.3h-6.5v-4.4
				C70.4,62.3,66.5,63.1,60.4,63.1z M72.7,74.1v-6.4h6.5v23.4H39.1V67.8h6.5v6.4H72.7z M72.7,79.7H45.6v5.9h27.1V79.7z"/>
		</g>
		<g class="st2">
			<path class="st1" d="M94.5,61.8c0-10.3,1.4-17.8,5.2-21.7c2-2.2,4.7-3.2,8.1-3.2c3.4,0,6.1,1.1,8,3.2c3.8,3.9,5.2,11.4,5.2,21.7
				c0,10.3-1.4,17.8-5.2,21.7c-2,2.1-4.7,3.1-8,3.1c-3.4,0-6.1-1-8.1-3.1C95.9,79.7,94.5,72.1,94.5,61.8z M118.6,61.8
				c0-9.7-1.2-16.7-4.4-20.1c-1.6-1.6-3.7-2.6-6.3-2.6c-2.6,0-4.8,1-6.4,2.6C98.2,45.1,97,52.1,97,61.8c0,9.7,1.2,16.6,4.4,20.1
				c1.6,1.7,3.7,2.6,6.4,2.6c2.6,0,4.7-0.9,6.3-2.6C117.4,78.5,118.6,71.6,118.6,61.8z M134,89.8V36.9h2.5v52.8H134z"/>
			<path class="st1" d="M167.5,49.6c0-4.3,1.6-7.7,4.3-10c2.3-1.9,5.6-3.1,9.2-3.1c3.7,0,6.9,1.1,9.2,3.1c2.7,2.3,4.3,5.6,4.3,10
				c0,4.3-1.6,7.6-4.3,9.9c-2.3,2-5.5,3.1-9.2,3.1c-3.7,0-6.9-1.1-9.2-3.1C169.1,57.2,167.5,53.8,167.5,49.6z M170,49.6
				c0,3.5,1.3,6.2,3.4,8.1c1.9,1.7,4.5,2.6,7.6,2.6c3.1,0,5.7-1,7.6-2.6c2.2-1.9,3.4-4.6,3.4-8.1c0-3.5-1.2-6.2-3.4-8.2
				c-1.9-1.7-4.6-2.6-7.6-2.6c-3.1,0-5.7,1-7.6,2.6C171.3,43.3,170,46,170,49.6z M187.6,76.8V69h2.5v21.3h-19V69h2.5v7.8H187.6z
				 M187.6,78.9h-14.1v9.2h14.1V78.9z M202.2,69h2.5v6.1c0,6.4,3.9,10.9,8.7,13v2.3c-4.5-1.7-8.1-5.1-9.9-9.2
				c-1.6,4.1-5.6,7.7-9.8,9.2v-2.3c4.7-2,8.5-6.5,8.5-13V69z M210.6,64.1h-2.5V50.7h-11.2v-2.2h11.2V36.9h2.5V64.1z"/>
			<path class="st1" d="M223.5,67.2V65h47.6v2.2H223.5z M229.8,37.3V52h37.9v2.2h-40.4V37.3H229.8z M229.8,74.6v13.1h38.6V90h-41.1
				V74.6H229.8z"/>
		</g>
		<g class="st2">
			<path d="M298.4,42.4v-5.6h28.1v5.6h-10.8v2c0,9.2,5,13.6,11.8,15.1v5.8c-6.5-1.1-12.1-4.6-15-9.2c-2.8,4.7-8.5,8.8-15.1,9.9v-5.8
				c6.9-1.5,11.8-6.4,11.8-15.8v-2H298.4z M301.7,91.1V70h40.7v21.1H301.7z M335.9,75.6h-27.6v10h27.6V75.6z M342.4,66.5h-6.5V53.4
				h-11.2v-5.6h11.2V36.1h6.5V66.5z"/>
		</g>
		<g class="st2">
			<path class="st1" d="M370.2,37.3v7.4c0,8.9,6.9,14.8,13.6,17v2.4c-7.3-2.3-12.9-7.4-15-13c-1.6,5.6-7.2,11.2-14.8,13.6v-2.3
				c7-2.3,13.6-8.8,13.6-17.7v-7.4H370.2z M359.7,90.3V71.7h38.8v18.6H359.7z M396,73.9h-33.7v14.2H396V73.9z M398.5,66.3H396V36.9
				h2.5V66.3z"/>
			<path class="st1" d="M448.9,86h-18.6v-48h18.6V86z M446.3,83.8V40.2h-13.6v43.6H446.3z M451.4,61.8v-2.3h7.6V37.2h2.5v51.9H459
				V61.8H451.4z M470.4,36.9h2.5v53h-2.5V36.9z"/>
			<path class="st1" d="M485.5,73.8v-2.2h47v2.2h-11.3v16.6h-2.5V73.8h-19.2v16.6H497V73.8H485.5z M491,37.3V58h39v2.3h-41.5v-23
				H491z"/>
			<path class="st1" d="M560.9,37.6h26.2v2.2h-11.8V46c0,8.8,6.7,14.1,12.7,15.7v2.4c-6.5-1.7-11.9-6.2-14-11.7
				c-1.9,5.6-7.2,10.9-14,12.4v-2.3c6.4-1.5,12.7-7.4,12.7-16.4v-6.2h-11.8V37.6z M583.9,91.1c-6.9,0-12.8-1.1-16.5-3.6
				c-2.5-1.7-3.9-4-3.9-6.9c0-3,1.4-5.3,3.9-7c3.7-2.5,9.6-3.7,16.5-3.7c7,0,12.9,1.1,16.6,3.7c2.5,1.7,3.9,4,3.9,7
				c0,2.9-1.4,5.2-3.9,6.9C596.8,90,590.9,91.1,583.9,91.1z M583.9,72.2c-6.4,0-11.8,1.1-15,3.2c-1.9,1.4-2.9,3-2.9,5.2
				c0,2.1,1.1,3.8,2.9,5.1c3.1,2.2,8.5,3.2,15,3.2c6.5,0,11.9-1.1,15-3.2c2-1.3,3.1-3,3.1-5.1c0-2.2-1.1-3.8-3.1-5.2
				C595.7,73.3,590.3,72.2,583.9,72.2z M603.2,66.9h-2.5V51.3h-13.1V49h13.1V36.9h2.5V66.9z"/>
			<path class="st1" d="M639.1,46.3H617v-2.3h9.8v-8.9h2.6v8.9h9.7V46.3z M618.1,70c0-7.6,1.6-12.4,4.4-14.8c1.6-1.4,3.5-2,5.6-2
				c2.2,0,4.1,0.6,5.6,2c2.8,2.5,4.4,7.3,4.4,14.8s-1.6,12.4-4.4,14.8c-1.5,1.4-3.4,2.1-5.6,2.1c-2.1,0-4-0.7-5.6-2.1
				C619.8,82.4,618.1,77.6,618.1,70z M620.7,70c0,6.8,1.3,10.9,3.4,13c1.1,1.2,2.6,1.7,4.1,1.7c1.6,0,3-0.5,4.1-1.7
				c2.1-2,3.4-6.1,3.4-13c0-6.8-1.3-10.9-3.4-13c-1.1-1.1-2.5-1.7-4.1-1.7c-1.5,0-2.9,0.5-4.1,1.7C621.9,59.1,620.7,63.2,620.7,70z
				 M660.8,89.8h-2.5V62h-9.7v27.1h-2.5V37.2h2.5v22.6h9.7V36.9h2.5V89.8z"/>
			<path class="st1" d="M673.4,75.2v-2.3h47v2.3h-22.3v15.6h-2.5V75.2H673.4z M676.5,39.9v-2.2h40.9v2.2h-19.3v3.4
				c0,9.8,10.3,16.1,19.8,17.7v2.4c-10-1.9-18-6.8-21-14c-3,7.1-11.5,12.2-21.1,14v-2.4c9.2-1.5,19.8-7.9,19.8-17.7v-3.4H676.5z"/>
			<path class="st1" d="M730.1,67.2V65h47.6v2.2H730.1z M736.4,37.3V52h37.9v2.2h-40.4V37.3H736.4z M736.4,74.6v13.1h38.6V90h-41.1
				V74.6H736.4z"/>
		</g>
		<g class="st2">
			<path d="M826.3,86.9h-20.8V36.8h6.5v44.4h14.7c4,0,8-0.4,10.9-1.4v5.4C834.8,86.3,830.6,86.9,826.3,86.9z M825.9,61.1v-5.6h16.5
				V36.1h6.5v54.5h-6.5V61.1H825.9z"/>
		</g>
		<circle cx="56.7" cy="5.5" r="5.5"/>
		<circle cx="321.7" cy="5.5" r="5.5"/>
		<circle cx="827.7" cy="5.5" r="5.5"/>
	</g>
</g>
</svg>
